# xmcd
#
# Track frame offsets:
#	150
#	12140
#	27133
#	39007
#	51761
#	63769
#	79929
#	97581
#	110234
#	129759
#	147232
#	162057
#	176325
#	192006
#	210769
#	222600
#	234785
#	249049
#	259997
#	270110
#	288397
#
# Disc length: 4029 seconds
#
# Revision: 0
# Processed by: cddbd v1.5.1PL0 Copyright (c) Steve Scherf et al.
# Submitted via: EasyCDDAExtractor 4.6.9.1
#
DISCID=000fbb15
DTITLE=Kenny Chesney - The Best Of
DYEAR=1900
DGENRE=
TTITLE0=Wanna Fall In Love
TTITLE1=She's Got It All
TTITLE2=Somebody's Callin
TTITLE3=Honey Would You Stand By Me
TTITLE4=Another Friday Night
TTITLE5=Lonely, Needin Lovin
TTITLE6=Never Gonna Feel That Way Again
TTITLE7=The Bigger The Fool (The Harder The Fall)
TTITLE8=Grandpa Told Me So
TTITLE9=Love Those Songs
TTITLE10=Ain't That Love
TTITLE11=How Forever Feels
TTITLE12=Back in My Arms
TTITLE13=She Thinks My Tractor's Sexy
TTITLE14=Someone Elses Hog
TTITLE15=I Finally Found Someone
TTITLE16=My Poor Old Heart
TTITLE17=Paris, Tennessee
TTITLE18=(Turn Out The Lights) Love Me Tonight
TTITLE19=Kiss Me, Kiss Me Kiss Me
TTITLE20=Whatever It Takes
EXTD=
EXTT0=
EXTT1=
EXTT2=
EXTT3=
EXTT4=
EXTT5=
EXTT6=
EXTT7=
EXTT8=
EXTT9=
EXTT10=
EXTT11=
EXTT12=
EXTT13=
EXTT14=
EXTT15=
EXTT16=
EXTT17=
EXTT18=
EXTT19=
EXTT20=
PLAYORDER=
